<?xml version="1.0" encoding="UTF-8"?>
<!DOCTYPE svg PUBLIC "-//W3C//DTD SVG 1.1//EN" "http://www.w3.org/Graphics/SVG/1.1/DTD/svg11.dtd">
<!-- Creator: CorelDRAW X7 -->
<svg xmlns="http://www.w3.org/2000/svg" xml:space="preserve" width="345.779mm" height="68.9186mm" version="1.1" style="shape-rendering:geometricPrecision; text-rendering:geometricPrecision; image-rendering:optimizeQuality; fill-rule:evenodd; clip-rule:evenodd"
viewBox="0 0 34578 6892"
 xmlns:xlink="http://www.w3.org/1999/xlink">
 <defs>
  <style type="text/css">
   <![CDATA[
    .fil1 {fill:#FFCC00}
    .fil0 {fill:#FFCC00;fill-rule:nonzero}
   ]]>
  </style>
 </defs>
 <g id="Layer_x0020_1">
  <metadata id="CorelCorpID_0Corel-Layer"/>
  <g id="_2236534933088">
   <g>
    <path class="fil0" d="M770 4871c-13,0 -32,-6 -56,-23 -66,-47 -124,-146 -174,-294 -25,-80 -37,-151 -37,-214 0,-40 8,-79 22,-116 15,-36 100,-269 256,-699 -114,-37 -214,-94 -304,-169 -88,-76 -132,-135 -132,-181 0,-26 10,-46 31,-60l36 -7c34,92 140,139 318,139 42,0 88,-3 135,-9l23 -4 72 -186 696 -1883c-278,124 -456,416 -533,874l-4 67c0,41 5,76 16,107 3,8 6,16 10,24 4,9 9,17 15,25 5,7 7,16 7,27 0,22 -10,32 -32,32 -16,0 -32,-8 -51,-24 -59,-58 -105,-122 -140,-191 -73,-122 -111,-251 -111,-389 0,-117 20,-228 60,-334 146,-368 431,-610 854,-727l84 -12c69,-8 137,-13 206,-13 434,0 775,204 1022,609 145,226 218,418 218,580 0,199 -66,420 -198,664 -149,286 -365,525 -648,719 -318,214 -692,330 -1121,346l-8 23c-61,164 -110,301 -146,410l-160 430c-45,118 -80,214 -108,286 -25,70 -43,112 -51,126l-8 12c-10,25 -30,35 -59,35zm687 -1732c146,-58 317,-153 512,-286 586,-423 879,-896 879,-1419 0,-153 -77,-274 -230,-360 -96,-61 -231,-93 -406,-93 -100,9 -202,26 -306,52 122,149 183,267 183,354 0,5 -115,328 -346,970l-286 782z"/>
    <path id="1" class="fil0" d="M2808 4900c-40,0 -80,-31 -124,-92 -142,-143 -214,-310 -214,-501 0,-195 54,-442 161,-740 108,-299 234,-550 379,-753 40,-61 114,-139 221,-231 107,-92 229,-142 367,-148 220,6 382,34 486,85 134,61 202,149 202,265 0,64 -23,128 -68,192 -39,55 -73,82 -99,82 -11,0 -16,-9 -16,-31l0 -8c0,-16 -19,-31 -56,-47 -63,-25 -126,-36 -187,-36 -58,0 -112,11 -163,36 -89,39 -161,104 -214,195 -5,1 -8,5 -8,11 -50,66 -100,143 -151,230 -103,178 -192,356 -265,533 -59,137 -89,216 -89,235 11,0 121,-128 330,-383 316,-378 483,-566 501,-566l24 0c88,14 170,52 247,111 108,76 163,160 163,249 0,8 -21,72 -60,192 -75,236 -152,461 -235,675 -106,283 -177,425 -214,425 -16,0 -53,-24 -111,-72 -72,-71 -122,-131 -152,-178 -34,-69 -52,-134 -52,-195l4 -36c-198,329 -401,495 -607,501z"/>
    <path id="2" class="fil0" d="M4405 4884c-40,0 -85,-36 -135,-108l-27 -39c-72,-122 -109,-244 -109,-366 0,-45 7,-88 21,-130l150 -418 461 -1244c30,-66 64,-99 103,-99 6,0 22,3 49,8 26,6 61,37 107,95 45,59 80,120 107,183 24,51 36,89 36,116 0,15 -18,70 -52,166l-31 83c65,-81 145,-179 237,-290 94,-111 186,-210 278,-300 94,-88 167,-133 220,-133 45,0 96,15 155,46 58,30 112,67 164,108 53,40 95,84 130,130 34,47 52,85 52,118 0,16 -25,89 -72,222l-111 266c-70,141 -104,236 -104,286l0 21c0,13 -31,19 -92,19 -89,0 -168,-25 -233,-74 -67,-49 -100,-119 -100,-211 0,-52 9,-110 28,-175 5,-22 8,-40 8,-52 0,-13 -4,-20 -12,-20 -50,0 -229,201 -537,603 -228,300 -356,477 -385,529 -21,40 -38,75 -52,108 -125,320 -195,500 -214,539 -3,0 -4,2 -4,4 -11,6 -23,9 -36,9z"/>
    <path id="3" class="fil0" d="M6268 4884c-15,0 -34,-7 -56,-19 -69,-46 -127,-146 -179,-299 -23,-66 -35,-131 -35,-195 0,-45 7,-88 20,-130 18,-59 103,-289 254,-692 66,-175 186,-498 358,-970 28,-66 64,-99 103,-99 5,0 22,3 47,8 28,6 63,37 108,95 44,59 81,120 107,183 24,51 36,89 36,116 0,20 -107,331 -322,929 -82,225 -154,426 -215,601 -95,264 -149,407 -163,428l-4 12c-16,21 -35,32 -59,32zm1017 -2813l0 0c5,-30 -7,-78 -35,-146 -30,-67 -68,-130 -118,-188 -49,-58 -97,-90 -144,-92 -3,0 -5,1 -8,4 -8,0 -18,1 -29,4 -8,8 -21,30 -43,66 -22,36 -42,76 -62,122 -19,48 -29,87 -29,122 1,75 11,139 27,194 19,67 42,120 72,160 26,42 57,71 91,87 33,19 62,29 92,29 21,0 44,-18 67,-52 35,-54 61,-108 77,-164 18,-56 30,-98 38,-126 0,-11 1,-18 4,-20z"/>
    <path id="4" class="fil0" d="M8171 4888c-21,0 -46,-6 -75,-17 -64,-23 -123,-61 -179,-111 -64,-47 -113,-111 -148,-190 -156,167 -287,265 -393,295 -79,15 -149,23 -210,23 -19,0 -42,-6 -72,-17l-44 -15c-47,-24 -93,-55 -139,-93 -45,-38 -84,-86 -117,-141 -33,-56 -50,-115 -50,-179 0,-42 45,-189 131,-437 144,-414 304,-848 482,-1303 34,-101 72,-152 115,-152 4,0 22,4 49,11 29,6 65,39 110,97 45,59 80,118 107,182 23,50 35,89 35,115 0,14 -15,59 -47,136 -289,697 -433,1103 -433,1219 0,25 7,37 19,37 14,0 39,-14 76,-41 284,-195 553,-586 811,-1172l44 -119c58,-164 103,-285 135,-361 15,-46 35,-76 60,-92 26,-50 53,-75 79,-75 10,0 28,6 51,19 25,14 53,53 88,118 34,65 60,131 75,197 30,64 45,111 45,142 0,11 -17,53 -49,128 -289,697 -433,1104 -433,1223 0,19 8,30 25,33 58,0 194,-126 408,-379 122,-142 249,-352 382,-630 162,-345 269,-596 322,-752 26,-66 57,-99 91,-99 5,0 19,3 40,11 21,8 49,45 86,107 35,64 62,129 81,196 15,47 23,85 23,111 0,27 -36,144 -111,350 -183,514 -414,928 -692,1244 -225,253 -484,381 -778,381z"/>
    <path id="5" class="fil0" d="M9728 4884c-15,0 -34,-7 -56,-19 -69,-46 -127,-146 -179,-299 -23,-66 -35,-131 -35,-195 0,-45 7,-88 20,-130 18,-59 103,-289 254,-692 66,-175 186,-498 358,-970 28,-66 64,-99 103,-99 5,0 22,3 47,8 28,6 63,37 108,95 44,59 81,120 107,183 24,51 36,89 36,116 0,20 -107,331 -322,929 -82,225 -154,426 -215,601 -95,264 -149,407 -162,428l-5 12c-16,21 -35,32 -59,32zm1017 -2813l0 0c5,-30 -7,-78 -35,-146 -30,-67 -68,-130 -118,-188 -49,-58 -97,-90 -144,-92 -3,0 -5,1 -8,4 -8,0 -18,1 -29,4 -8,8 -21,30 -43,66 -22,36 -42,76 -62,122 -19,48 -29,87 -29,122 1,75 11,139 27,194 19,67 42,120 72,160 26,42 57,71 91,87 33,19 62,29 92,29 21,0 44,-18 67,-52 35,-54 61,-108 77,-164 18,-56 30,-98 38,-126 0,-11 1,-18 4,-20z"/>
    <path id="6" class="fil0" d="M11138 4916c-10,0 -61,-3 -150,-7 -91,-4 -210,-62 -358,-176 -148,-114 -259,-281 -334,-500 -8,-28 -12,-53 -12,-80 0,-104 34,-205 103,-306 53,-80 98,-119 132,-119 16,0 25,12 31,39 43,257 184,451 426,581 63,31 108,47 134,47 19,0 28,-8 28,-24 0,-50 -40,-212 -123,-484l-167 -541 -60 -223c-23,-89 -35,-174 -35,-249 0,-62 10,-114 27,-159 97,-175 211,-278 346,-307 48,-11 95,-16 144,-16 87,0 184,22 293,66 108,44 210,99 302,169 93,69 147,114 163,135 94,112 140,234 140,365 0,56 -12,111 -37,167 -28,80 -66,119 -115,119 -23,0 -42,-20 -56,-63 -42,-127 -111,-220 -206,-278 -116,-70 -229,-104 -338,-104 -58,0 -86,14 -86,40 0,49 29,160 91,333 52,158 105,333 158,525 59,212 88,399 88,561 0,158 -44,278 -131,358 -114,86 -247,131 -398,131z"/>
    <path id="7" class="fil0" d="M12346 4900c-40,0 -80,-31 -124,-92 -142,-143 -214,-310 -214,-501 0,-195 54,-442 161,-740 107,-299 234,-550 379,-753 40,-61 114,-139 221,-231 107,-92 229,-142 367,-148 220,6 381,34 486,85 134,61 202,149 202,265 0,64 -23,128 -68,192 -39,55 -73,82 -99,82 -11,0 -16,-9 -16,-31l0 -8c0,-16 -19,-31 -56,-47 -63,-25 -126,-36 -187,-36 -58,0 -112,11 -163,36 -89,39 -161,104 -214,195 -5,1 -8,5 -8,11 -50,66 -100,143 -151,230 -103,178 -192,356 -266,533 -58,137 -88,216 -88,235 11,0 121,-128 330,-383 316,-378 483,-566 500,-566l25 0c88,14 169,52 247,111 108,76 162,160 162,249 0,8 -20,72 -59,192 -75,236 -152,461 -235,675 -106,283 -178,425 -214,425 -16,0 -53,-24 -111,-72 -72,-71 -122,-131 -152,-178 -34,-69 -52,-134 -52,-195l4 -36c-198,329 -401,495 -607,501z"/>
    <path id="8" class="fil0" d="M13939 4884c-38,0 -77,-29 -119,-87 -6,-6 -10,-12 -12,-21 -90,-124 -136,-259 -136,-405 0,-45 5,-88 16,-130 19,-46 285,-771 799,-2175l-171 -8c-247,0 -407,10 -480,29 -58,12 -88,34 -88,64 0,4 -4,6 -12,6 -23,0 -35,-17 -35,-55 0,-45 20,-105 59,-178 45,-85 97,-142 155,-171 58,-30 293,-45 704,-45l317 -865c27,-66 63,-100 107,-100 61,0 131,62 206,187 59,98 89,171 89,218 -6,25 -72,213 -200,564l358 -4c215,0 337,-13 367,-43 12,-14 19,-28 19,-47 0,-6 1,-9 4,-9 44,0 67,23 67,68 0,45 -16,94 -47,147 -48,85 -102,153 -163,203 -47,39 -115,63 -203,68 -23,0 -73,-1 -149,-4 -75,-3 -152,-6 -230,-7 -78,-1 -130,-3 -153,-5 -38,108 -328,918 -875,2428 -68,189 -111,301 -126,333 -3,3 -7,8 -12,16 -6,9 -14,14 -22,19 -9,6 -22,9 -34,9z"/>
    <path id="9" class="fil0" d="M14813 4900c-40,0 -80,-31 -124,-92 -142,-143 -214,-310 -214,-501 0,-195 54,-442 161,-740 108,-299 234,-550 379,-753 41,-61 114,-139 221,-231 107,-92 229,-142 367,-148 220,6 382,34 486,85 134,61 202,149 202,265 0,64 -23,128 -68,192 -39,55 -73,82 -99,82 -11,0 -16,-9 -16,-31l0 -8c0,-16 -19,-31 -56,-47 -63,-25 -126,-36 -187,-36 -58,0 -112,11 -162,36 -90,39 -162,104 -215,195 -5,1 -8,5 -8,11 -50,66 -100,143 -150,230 -104,178 -193,356 -266,533 -59,137 -88,216 -88,235 10,0 120,-128 329,-383 316,-378 483,-566 501,-566l24 0c88,14 170,52 247,111 108,76 163,160 163,249 0,8 -21,72 -60,192 -75,236 -152,461 -235,675 -105,283 -177,425 -214,425 -16,0 -53,-24 -111,-72 -72,-71 -122,-131 -152,-178 -34,-69 -52,-134 -52,-195l4 -36c-198,329 -401,495 -607,501z"/>
    <path class="fil0" d="M18512 4976c-17,0 -41,-15 -75,-45 -77,-76 -132,-168 -164,-274 -23,-81 -35,-149 -35,-202 0,-47 6,-90 20,-123l19 -56c0,-3 1,-4 4,-4l426 -1172c-128,-16 -216,-33 -267,-47 -90,-38 -135,-79 -135,-124 0,-42 29,-104 86,-184 57,-82 118,-150 184,-205 80,-69 152,-105 219,-105 24,0 51,6 84,17 8,5 19,11 34,16 13,5 27,11 36,16 0,-13 112,-308 331,-883l309 -830c17,-16 37,-24 60,-24 72,0 144,58 214,175 61,106 93,186 93,238 0,9 -64,189 -192,542l-377 1024c240,-84 517,-251 826,-501 255,-201 500,-435 736,-702 208,-250 316,-425 321,-525 0,-45 -3,-71 -10,-78 -6,-6 -14,-10 -25,-10 16,-24 36,-36 63,-36 22,0 43,26 62,78 20,51 29,131 29,241 0,73 -8,171 -23,293 -19,149 -50,285 -96,410 -58,158 -125,274 -202,343 -77,70 -210,163 -402,276 -233,141 -444,258 -636,350 -267,131 -488,220 -663,270 114,151 216,301 307,452 89,149 173,283 249,403 77,119 152,215 225,290 72,75 149,111 228,111 109,0 223,-72 342,-214 3,3 7,4 9,5 5,2 10,6 17,14 7,8 9,20 9,37 0,70 -45,162 -137,275 -91,112 -195,207 -312,282 -115,76 -224,114 -321,114 -103,0 -202,-73 -299,-218 -73,-122 -161,-307 -261,-554 -133,-306 -235,-529 -307,-667 -76,205 -125,339 -146,405l-4 4c-37,114 -144,410 -322,886l-8 12 -60 159 -8 12c-16,22 -34,33 -55,33z"/>
    <path class="fil0" d="M21209 4900c-39,0 -80,-31 -123,-92 -143,-143 -214,-310 -214,-501 0,-195 54,-442 161,-740 107,-299 233,-550 378,-753 41,-61 114,-139 222,-231 107,-92 229,-142 367,-148 220,6 381,34 486,85 134,61 202,149 202,265 0,64 -23,128 -68,192 -39,55 -73,82 -99,82 -11,0 -16,-9 -16,-31l0 -8c0,-16 -19,-31 -56,-47 -64,-25 -126,-36 -187,-36 -58,0 -113,11 -163,36 -89,39 -161,104 -214,195 -6,1 -8,5 -8,11 -51,66 -101,143 -151,230 -103,178 -193,356 -266,533 -58,137 -88,216 -88,235 11,0 121,-128 330,-383 316,-378 483,-566 500,-566l25 0c88,14 169,52 246,111 109,76 163,160 163,249 0,8 -20,72 -59,192 -75,236 -152,461 -235,675 -106,283 -178,425 -214,425 -17,0 -53,-24 -112,-72 -72,-71 -122,-131 -152,-178 -33,-69 -51,-134 -51,-195l4 -36c-198,329 -402,495 -608,501z"/>
    <path class="fil0" d="M22807 4884c-41,0 -85,-36 -136,-108l-27 -39c-72,-122 -108,-244 -108,-366 0,-45 7,-88 20,-130l151 -418 461 -1244c30,-66 64,-99 103,-99 5,0 22,3 49,8 26,6 61,37 107,95 45,59 80,120 107,183 23,51 35,89 35,116 0,15 -17,70 -51,166l-31 83c65,-81 145,-179 237,-290 94,-111 186,-210 278,-300 94,-88 167,-133 220,-133 45,0 96,15 154,46 59,30 113,67 165,108 52,40 94,84 130,130 34,47 51,85 51,118 0,16 -24,89 -72,222l-111 266c-69,141 -103,236 -103,286l0 21c0,13 -31,19 -92,19 -90,0 -168,-25 -233,-74 -67,-49 -101,-119 -101,-211 0,-52 10,-110 29,-175 5,-22 8,-40 8,-52 0,-13 -4,-20 -12,-20 -51,0 -230,201 -538,603 -227,300 -355,477 -385,529 -20,40 -38,75 -51,108 -125,320 -196,500 -215,539 -2,0 -4,2 -4,4 -10,6 -23,9 -35,9z"/>
    <path class="fil0" d="M24793 4900c-40,0 -80,-31 -124,-92 -142,-143 -214,-310 -214,-501 0,-195 54,-442 162,-740 107,-299 233,-550 378,-753 41,-61 114,-139 221,-231 107,-92 229,-142 368,-148 219,6 381,34 485,85 134,61 202,149 202,265 0,64 -23,128 -68,192 -39,55 -73,82 -99,82 -10,0 -16,-9 -16,-31l0 -8c0,-16 -19,-31 -55,-47 -64,-25 -127,-36 -188,-36 -58,0 -112,11 -162,36 -90,39 -162,104 -215,195 -5,1 -8,5 -8,11 -50,66 -100,143 -150,230 -103,178 -193,356 -266,533 -59,137 -88,216 -88,235 10,0 120,-128 329,-383 316,-378 483,-566 501,-566l24 0c88,14 170,52 247,111 108,76 163,160 163,249 0,8 -21,72 -60,192 -75,236 -152,461 -235,675 -105,283 -177,425 -214,425 -16,0 -53,-24 -111,-72 -72,-71 -122,-131 -152,-178 -34,-69 -52,-134 -52,-195l4 -36c-198,329 -401,495 -607,501z"/>
    <path class="fil0" d="M27546 4888c-20,0 -46,-6 -74,-17 -64,-23 -124,-61 -179,-111 -64,-47 -113,-111 -148,-190 -156,167 -288,265 -394,295 -78,15 -149,23 -210,23 -19,0 -42,-6 -72,-17l-43 -15c-48,-24 -94,-55 -140,-93 -45,-38 -84,-86 -116,-141 -33,-56 -51,-115 -51,-179 0,-42 45,-189 132,-437 144,-414 304,-848 481,-1303 34,-101 72,-152 116,-152 4,0 21,4 49,11 28,6 65,39 109,97 45,59 80,118 108,182 23,50 35,89 35,115 0,14 -15,59 -48,136 -289,697 -432,1103 -432,1219 0,25 6,37 19,37 13,0 39,-14 76,-41 283,-195 553,-586 811,-1172l43 -119c58,-164 103,-285 136,-361 15,-46 35,-76 59,-92 26,-50 53,-75 79,-75 11,0 29,6 52,19 24,14 53,53 88,118 34,65 59,131 74,197 30,64 45,111 45,142 0,11 -16,53 -49,128 -289,697 -432,1104 -432,1223 0,19 8,30 24,33 58,0 194,-126 408,-379 122,-142 250,-352 383,-630 161,-345 268,-596 321,-752 26,-66 57,-99 91,-99 6,0 19,3 41,11 20,8 49,45 85,107 36,64 63,129 82,196 15,47 23,85 23,111 0,27 -37,144 -112,350 -183,514 -413,928 -691,1244 -225,253 -484,381 -779,381z"/>
    <path class="fil0" d="M29227 4900c-40,0 -80,-31 -124,-92 -142,-143 -214,-310 -214,-501 0,-195 54,-442 161,-740 108,-299 234,-550 379,-753 41,-61 114,-139 221,-231 107,-92 229,-142 367,-148 220,6 382,34 486,85 134,61 202,149 202,265 0,64 -23,128 -68,192 -39,55 -73,82 -99,82 -11,0 -16,-9 -16,-31l0 -8c0,-16 -19,-31 -56,-47 -63,-25 -126,-36 -187,-36 -58,0 -112,11 -162,36 -90,39 -162,104 -215,195 -5,1 -8,5 -8,11 -50,66 -100,143 -150,230 -104,178 -193,356 -266,533 -59,137 -88,216 -88,235 10,0 120,-128 329,-383 316,-378 483,-566 501,-566l24 0c88,14 170,52 247,111 108,76 163,160 163,249 0,8 -21,72 -60,192 -75,236 -152,461 -235,675 -105,283 -177,425 -214,425 -16,0 -53,-24 -111,-72 -72,-71 -122,-131 -152,-178 -34,-69 -52,-134 -52,-195l4 -36c-198,329 -401,495 -607,501z"/>
    <path class="fil0" d="M30825 4875c-59,0 -116,-56 -171,-170 -67,-112 -101,-230 -101,-353 0,-49 7,-88 21,-119 13,-48 105,-302 278,-760l210 -564 123 -338c30,-69 65,-103 107,-103 41,0 83,26 131,80 46,53 86,115 120,190 29,61 44,108 44,144l0 10c-11,22 -37,95 -79,220l-20 56c8,-6 31,-35 72,-88 336,-453 565,-680 687,-680 90,0 196,52 319,153 123,102 186,185 186,249 0,24 -53,161 -156,413 -29,74 -61,151 -95,231 0,15 -64,180 -191,496l-258 719c-34,95 -56,149 -64,163 -8,14 -19,26 -31,37 -11,6 -23,10 -37,10 -42,0 -86,-35 -134,-107l-12 -23c-83,-133 -123,-260 -123,-382 0,-45 6,-88 20,-130 8,-22 41,-114 100,-279 60,-164 132,-355 213,-572l64 -171 0 -4c16,-45 24,-79 24,-99 0,-13 -4,-20 -12,-20 -35,0 -119,82 -255,247 -206,251 -385,484 -536,698 -93,130 -147,214 -162,251l-25 48c-16,31 -26,55 -31,71l-4 9 -68 189c-42,122 -72,200 -88,231 -3,0 -3,1 -3,4l0 4c-2,0 -5,2 -7,4 -1,3 -2,6 -5,8l-8 8c-14,13 -29,19 -43,19z"/>
    <path class="fil0" d="M32584 6673l-31 0c-70,0 -140,-8 -212,-25 -15,-5 -33,-9 -52,-12 -242,-69 -457,-182 -643,-338l-84 -68c-312,-280 -468,-534 -468,-762 0,-32 16,-182 43,-192 282,-100 485,-125 733,223 69,96 163,188 285,274 148,109 282,165 402,165 95,0 169,-49 222,-144 23,-48 56,-125 95,-232 39,-107 89,-235 146,-380 28,-72 91,-248 192,-529 -128,141 -266,216 -418,227 -23,0 -46,-10 -67,-28 -177,-166 -267,-355 -267,-564 0,-210 53,-456 160,-739 167,-464 365,-794 596,-990 108,-90 233,-138 373,-147 194,6 340,27 442,68 164,64 245,156 245,278 0,67 -20,129 -63,189 -42,59 -78,89 -107,89 -11,0 -15,-9 -15,-28l0 -7c0,-22 -19,-39 -56,-53 -69,-23 -132,-35 -187,-35 -156,0 -282,77 -379,230l-6 13c-141,190 -278,446 -414,766 -61,144 -91,220 -91,231 7,0 118,-128 334,-382 150,-191 291,-356 420,-496 44,-66 90,-100 140,-100 39,0 98,29 175,88 108,76 163,160 163,249 0,11 -99,274 -299,787 -256,674 -488,1295 -696,1865 -33,98 -62,165 -86,202 -30,48 -60,88 -91,124l-12 16 -5 0c-2,4 -6,8 -12,11 -36,32 -58,50 -65,54 -7,4 -15,7 -22,9l0 4 -20 9 0 4 -20 8c-21,11 -34,16 -40,19 -5,3 -10,5 -17,7 -7,1 -14,4 -22,8 -8,4 -18,7 -26,8 -9,0 -17,3 -24,5 -7,3 -23,7 -50,13 -12,0 -21,1 -23,4l-76 4zm648 -1948l8 -20 -20 20 12 0z"/>
    <path class="fil0" d="M4 5727c-15,-41 4,-94 53,-164 42,-59 95,-114 163,-166 59,-45 115,-81 177,-104 41,-15 81,-28 122,-28l28513 12c186,0 289,1 306,1 324,0 489,-1 494,-3l1695 2c73,5 115,25 128,62 2,5 5,21 9,47 5,28 -13,72 -51,135 -40,62 -85,116 -135,164 -39,39 -71,64 -96,73 -29,11 -630,18 -1803,26 -887,5 -28835,-3 -29071,-6l-441 -6 -15 -4c-26,-6 -41,-22 -48,-41z"/>
    <path class="fil1" d="M2037 274c543,0 954,270 1230,723 239,381 327,662 198,1095 305,-57 884,32 1032,392 79,-215 174,-409 471,-348 135,28 240,156 311,269 343,-370 562,-499 1012,-148 42,32 80,67 116,105 44,-97 113,-179 208,-217 -81,-255 -54,-440 81,-663 74,-123 155,-203 306,-194 308,17 592,499 517,761l-43 144c298,5 516,411 542,607 87,-242 253,-857 670,-619 161,92 221,287 278,450 28,63 51,130 56,198l178 -441c123,-320 470,-362 662,-15 51,-103 103,-184 213,-228 -81,-256 -55,-439 81,-663 74,-123 155,-203 306,-194 308,17 592,499 517,761l-11 40c347,-141 763,18 1046,230l292 299c185,-273 489,-547 836,-540 105,3 220,10 331,30 -82,-227 120,-581 329,-685 121,-62 426,-71 644,-72l261 -711c128,-319 493,-380 755,52 95,158 127,252 122,347 77,-219 98,-307 -75,-594 -284,-470 -702,-409 -853,-45l-249 677c-181,1 -494,8 -630,78 -218,109 -404,439 -376,667 -85,-11 -172,-16 -257,-18 -330,-8 -659,243 -836,496l-261 -244c-282,-212 -646,-352 -1003,-268 41,-255 -232,-755 -579,-774 -171,-10 -271,79 -356,220 -134,221 -169,406 -100,663 -62,35 -113,87 -151,147 -80,-112 -195,-187 -336,-187 -324,0 -382,340 -485,583 -81,-212 -184,-583 -520,-583 -292,0 -412,322 -495,549 -95,-215 -232,-427 -474,-478l24 -83c84,-296 -222,-812 -567,-831 -171,-10 -271,79 -356,220 -134,222 -169,405 -100,663 -65,36 -117,91 -156,155l-68 -58c-439,-342 -687,-261 -1039,104l-22 -30c-250,-319 -629,-286 -777,66 -195,-272 -650,-353 -947,-327 101,-417 0,-697 -227,-1059 -286,-471 -716,-748 -1276,-748l-370 35c-879,241 -1321,1061 -1065,1736 -36,-195 -17,-395 61,-589 183,-461 544,-744 1018,-874l356 -34zm19971 1530c-203,-5 -402,86 -568,216 -56,116 -124,218 -207,293 -40,36 -90,75 -147,116 -211,338 -378,748 -465,1131 -124,41 -154,138 -241,194 -120,-100 -324,-447 -462,-673 -58,26 -112,50 -160,69 82,123 524,885 617,884 77,-1 149,-182 292,-210 92,-431 294,-903 538,-1257 171,-247 482,-496 801,-489 324,7 755,71 893,406 79,-215 174,-409 470,-348 136,28 240,156 312,269 343,-370 562,-499 1012,-148l179 181 9 13c185,-202 424,-379 709,-373 334,8 789,77 905,442 90,-232 199,-372 460,-309 213,52 414,406 438,589 88,-242 254,-857 671,-619 160,92 221,287 278,450 27,63 51,130 56,198l177 -441c124,-321 473,-362 665,-11 18,33 35,67 50,102 185,-214 441,-407 734,-401 323,7 751,70 891,403 60,-165 137,-370 377,-370 184,0 316,142 407,286 362,-397 618,-479 1025,-144 59,48 120,105 170,168 177,-204 423,-374 702,-366 375,11 928,114 928,594 0,11 0,23 -1,35 36,-79 56,-165 56,-255 0,-515 -574,-637 -982,-648 -271,-7 -520,143 -702,337 -42,-46 -89,-88 -137,-127 -414,-341 -695,-273 -1052,99 -286,-393 -677,-291 -802,41 -196,-269 -568,-319 -879,-327 -288,-7 -528,160 -720,358 -85,-165 -209,-305 -408,-305 -324,0 -382,340 -484,583 -82,-212 -185,-583 -521,-583 -291,0 -412,322 -494,549l-152 -260c-221,-288 -578,-324 -753,19 -185,-297 -579,-353 -902,-361 -282,-7 -515,152 -705,343 -48,-56 -101,-107 -159,-153 -439,-342 -687,-262 -1039,104l-22 -30c-250,-319 -629,-286 -777,66 -195,-271 -570,-322 -881,-330zm-317 -940c0,-980 -900,-614 -743,-182 -166,311 -685,789 -967,1012l-134 388c331,-237 998,-831 1162,-1178 -168,-361 627,-729 627,179 0,147 -17,326 -55,505 76,-247 110,-514 110,-724zm-2386 -527l-550 1468c-343,27 -925,609 -696,990 23,-262 405,-716 734,-717l563 -1503c79,-212 464,-321 721,113 61,107 125,237 125,363l-81 237c140,-353 209,-498 4,-846 -282,-478 -726,-359 -820,-105zm-3615 1010c156,-198 521,-74 512,234 141,-327 -18,-603 -316,-603 -86,0 -166,35 -223,96l-83 3c-12,75 -46,156 -88,274l198 -4z"/>
   </g>
   <path class="fil1" d="M31176 5877c-269,6 -802,11 -1597,16 -887,6 -28835,-2 -29071,-5l-441 -7 -2 0 -13 -3c-15,-4 -26,-10 -34,-19 -12,24 -18,45 -19,64 -1,13 1,24 5,35 7,19 22,35 48,42l13 3 2 0 441 6c236,4 28184,12 29071,6 795,-5 1328,-10 1597,-16 2,0 4,0 6,0 66,-2 116,-3 149,-5 -34,-40 -63,-80 -90,-119 -19,1 -41,2 -65,2z"/>
  </g>
 </g>
</svg>
